<svg width="32" height="32" viewBox="0 0 32 32" fill="none" xmlns="http://www.w3.org/2000/svg">
  <rect width="32" height="32" rx="6" fill="#1DA1F2"/>
  <path d="M25 9c-1.4.6-2.8 1-4.4 1.2 1.6-1 2.8-2.6 3.2-4.4-1.4.8-3 1.4-4.8 1.6-1.4-1.4-3.4-2.4-5.6-2.4-4.2 0-7.6 3.4-7.6 7.6 0 .6 0 1.2.2 1.8-6.4-.4-12-3.4-15.8-8-.6 1-1 2.2-1 3.6 0 2.6 1.4 4.8 3.4 6.4-1.2 0-2.4-.4-3.4-1v.2c0 3.8 2.6 6.8 6.2 7.6-.6.2-1.2.2-2 .2-.4 0-1 0-1.4-.2 1 3.2 4 5.6 7.6 5.6-2.8 2.2-6.4 3.6-10.2 3.6-.6 0-1.4 0-2-.2 3.6 2.4 8 3.8 12.6 3.8 15 0 23.2-12.4 23.2-23.2 0-.4 0-.8 0-1.2 1.6-1.2 3-2.6 4.2-4.2z" fill="white" transform="scale(0.6) translate(6,6)"/>
</svg>