<svg width="16" height="16" viewBox="0 0 16 16" fill="none" xmlns="http://www.w3.org/2000/svg">
  <rect width="16" height="16" rx="3" fill="#1DA1F2"/>
  <path d="M12.5 4.5c-.7.3-1.4.5-2.2.6.8-.5 1.4-1.3 1.6-2.2-.7.4-1.5.7-2.4.8-.7-.7-1.7-1.2-2.8-1.2-2.1 0-3.8 1.7-3.8 3.8 0 .3 0 .6.1.9-3.2-.2-6-1.7-7.9-4-.3.5-.5 1.1-.5 1.8 0 1.3.7 2.5 1.7 3.2-.6 0-1.2-.2-1.7-.5v.1c0 1.9 1.3 3.4 3.1 3.8-.3.1-.6.1-1 .1-.2 0-.5 0-.7-.1.5 1.6 2 2.8 3.8 2.8-1.4 1.1-3.2 1.8-5.1 1.8-.3 0-.7 0-1-.1 1.8 1.2 4 1.9 6.3 1.9 7.5 0 11.6-6.2 11.6-11.6 0-.2 0-.4 0-.6.8-.6 1.5-1.3 2.1-2.1z" fill="white" transform="scale(0.6) translate(3,3)"/>
</svg>