<svg width="128" height="128" viewBox="0 0 128 128" fill="none" xmlns="http://www.w3.org/2000/svg">
  <rect width="128" height="128" rx="16" fill="#1DA1F2"/>
  <path d="M100 36c-3.6 1.5-7.2 2.5-11.4 3-4.2-4.2-10.2-7.2-16.8-7.2-12.6 0-22.8 10.2-22.8 22.8 0 1.8 0 3.6.6 5.4-19.2-1.2-36-10.2-47.4-24-1.8 3-2.8 6.6-2.8 10.8 0 7.8 4.2 14.4 10.2 19.2-3.6 0-7.2-1.2-10.2-3v.6c0 11.4 7.8 20.4 18.6 22.8-1.8.6-3.6.6-6 .6-1.2 0-3 0-4.2-.6 3 9.6 12 16.8 22.8 16.8-8.4 6.6-19.2 10.8-30.6 10.8-1.8 0-4.2 0-6-.6 10.8 7.2 24 11.4 37.8 11.4 45 0 69.6-37.2 69.6-69.6 0-1.2 0-2.4 0-3.6 4.8-3.6 9-7.8 12.6-12.6z" fill="white" transform="scale(0.6) translate(25.6,25.6)"/>
</svg>