<svg width="48" height="48" viewBox="0 0 48 48" fill="none" xmlns="http://www.w3.org/2000/svg">
  <rect width="48" height="48" rx="8" fill="#1DA1F2"/>
  <path d="M37.5 13.5c-2.1.9-4.2 1.5-6.6 1.8 2.4-1.5 4.2-3.9 4.8-6.6-2.1 1.2-4.5 2.1-7.2 2.4-2.1-2.1-5.1-3.6-8.4-3.6-6.3 0-11.4 5.1-11.4 11.4 0 .9 0 1.8.3 2.7-9.6-.6-18-5.1-23.7-12-1.5 1.5-2.4 3.3-2.4 5.4 0 3.9 2.1 7.2 5.1 9.6-1.8 0-3.6-.6-5.1-1.5v.3c0 5.7 3.9 10.2 9.3 11.4-.9.3-1.8.3-3 .3-.6 0-1.5 0-2.1-.3 1.5 4.8 6 8.4 11.4 8.4-4.2 3.3-9.6 5.4-15.3 5.4-.9 0-2.1 0-3-.3 5.4 3.6 12 5.7 18.9 5.7 22.5 0 34.8-18.6 34.8-34.8 0-.6 0-1.2 0-1.8 2.4-1.8 4.5-3.9 6.3-6.3z" fill="white" transform="scale(0.6) translate(9.6,9.6)"/>
</svg>