<svg width="16" height="16" viewBox="0 0 16 16" fill="none" xmlns="http://www.w3.org/2000/svg">
  <path d="M16 3.5c-.6.3-1.3.5-2 .6.7-.4 1.3-1 1.5-1.8-.7.4-1.4.7-2.2.8-.6-.6-1.5-1-2.5-1-1.9 0-3.4 1.5-3.4 3.4 0 .3 0 .5.1.8-2.9-.2-5.5-1.6-7.2-3.9-.3.4-.4 1-.4 1.6 0 1.2.6 2.2 1.5 2.9-.5 0-1.1-.2-1.5-.5v.1c0 1.7 1.2 3.1 2.8 3.4-.3.1-.6.1-1 .1-.2 0-.4 0-.6-.1.4 1.4 1.8 2.5 3.4 2.5-1.3 1-2.9 1.6-4.6 1.6-.3 0-.6 0-.9-.1 1.7 1.1 3.7 1.8 5.8 1.8 6.9 0 10.7-5.7 10.7-10.7 0-.2 0-.3 0-.5.9-.7 1.6-1.4 2.2-2.2z" fill="currentColor"/>
</svg>